/* XPM */
static char *_3684_ef3c0434dcf5601b45daad7d6e6a0c72a6101617ddba52f7995194d962788f29[] = {
/* columns rows colors chars-per-pixel */
"64 64 196 2 ",
"   c #32320A",
".  c #29291B",
"X  c #3C3D3A",
"o  c #30491A",
"O  c #2E5427",
"+  c #424208",
"@  c #4E5508",
"#  c #4A5C12",
"$  c #535312",
"%  c #5E5E11",
"&  c #646E0B",
"*  c #7D7C00",
"=  c #656516",
"-  c #727215",
";  c #424226",
":  c #4E4E3B",
">  c #035956",
",  c #2B4444",
"<  c #344242",
"1  c #384848",
"2  c #394A4A",
"3  c #2B744A",
"4  c #2B794E",
"5  c #016666",
"6  c #0D6967",
"7  c #066C6C",
"8  c #007575",
"9  c #0A7872",
"0  c #007C7C",
"q  c #0B7979",
"w  c #157C7C",
"e  c #474746",
"r  c #494942",
"t  c #414C4C",
"y  c #53534C",
"u  c #435151",
"i  c #4C5E5E",
"p  c #545656",
"a  c #525B5B",
"s  c #615F5F",
"d  c #67675A",
"f  c #6B6B5D",
"g  c #75755C",
"h  c #446060",
"j  c #4E6161",
"k  c #516262",
"l  c #596565",
"z  c #666565",
"x  c #686666",
"c  c #676768",
"v  c #666C6B",
"b  c #686868",
"n  c #797965",
"m  c #6F6F70",
"M  c #687676",
"N  c #717171",
"B  c gray49",
"V  c #128775",
"C  c #1A9076",
"Z  c #19947B",
"A  c #2B8E78",
"S  c #44914E",
"D  c #56A54F",
"F  c #459362",
"G  c #8D8B07",
"H  c #999400",
"J  c #889712",
"K  c #87A01A",
"L  c #93A514",
"P  c #A9A90B",
"I  c #B4B000",
"U  c #A1B313",
"Y  c #B5B51C",
"T  c #B9CA12",
"R  c #C8C500",
"E  c #CAC600",
"W  c #C4D20F",
"Q  c #DCDA00",
"!  c #C0CF11",
"~  c #D5E20E",
"^  c #D1D127",
"/  c #007F81",
"(  c #008383",
")  c #0A8787",
"_  c #008C8C",
"`  c #0B8888",
"'  c #158B8B",
"]  c #089189",
"[  c #139B88",
"{  c #008F93",
"}  c #009393",
"|  c #0C9494",
" . c #009C9C",
".. c #0C9D9D",
"X. c #109393",
"o. c #1B9A95",
"O. c #129B9B",
"+. c #1F9999",
"@. c #249191",
"#. c #2A9393",
"$. c #259E9E",
"%. c #369B9B",
"&. c #15A694",
"*. c #31AE98",
"=. c #009EA0",
"-. c #01A4A4",
";. c #0CA1A1",
":. c #04A7A8",
">. c #05A9A9",
",. c #0CABAB",
"<. c #14A4A4",
"1. c #1CA3A3",
"2. c #14ADAD",
"3. c #1CABAB",
"4. c #17B0B0",
"5. c #1DB1B1",
"6. c #25A5A5",
"7. c #29A3A3",
"8. c #24ABAB",
"9. c #29A9A9",
"0. c #34A5A5",
"q. c #3DA3A3",
"w. c #35ACAC",
"e. c #3DABAB",
"r. c #23B4B4",
"t. c #2DB5B5",
"y. c #22B7B8",
"u. c #27B9B9",
"i. c #2CB9B9",
"p. c #31B5B5",
"a. c #3DB5B5",
"s. c #33BABA",
"d. c #3ABDBD",
"f. c #4B9D9D",
"g. c #728282",
"h. c #7A8686",
"j. c #759393",
"k. c #48A7A7",
"l. c #55A2A2",
"z. c #5BA8A8",
"x. c #47B3B3",
"c. c #49B6B6",
"v. c #42BDBD",
"b. c #4ABCBC",
"n. c #58B4B4",
"m. c #53BBBB",
"M. c #5DBBBB",
"N. c #61A6A6",
"B. c #60B5B5",
"V. c #6DB7B7",
"C. c #73BDBD",
"Z. c #39C1C1",
"A. c #41C0C0",
"S. c #4CC3C3",
"D. c #54C4C4",
"F. c #5CC6C6",
"G. c #63C6C6",
"H. c #6EC5C5",
"J. c #64C9C9",
"K. c #6BC9C9",
"L. c #70C2C2",
"P. c #74CBCB",
"I. c #7CCECE",
"U. c #72D1D1",
"Y. c #7DD1D1",
"T. c #828282",
"R. c #888B8B",
"E. c #899292",
"W. c #959595",
"Q. c #9E9E9E",
"!. c #8FA0A0",
"~. c #98A0A0",
"^. c #A5A4A4",
"/. c #A7ADAD",
"(. c gray68",
"). c #B7B6B6",
"_. c #81CFCF",
"`. c #84D2D2",
"'. c #8BD5D5",
"]. c #87D8D8",
"[. c #92D5D5",
"{. c #99D5D5",
"}. c #94D9D9",
"|. c #9BDDDD",
" X c #BDC4C4",
".X c #A1DFDF",
"XX c #A4E1E1",
"oX c #ACE4E4",
"OX c #B1E7E7",
"+X c #B6E9E9",
"@X c #B9EAEA",
"#X c #C2C8C8",
"$X c #D0D6D6",
"%X c #C1ECEC",
"&X c #CAF1F1",
"*X c #D5F5F5",
/* pixels */
"X < < < < < < < < < < < < < X < < < < < < < < < < < < < < X < < < < < < O < < < , < < < < < < < < < < < < < X < < < < < < < < X ",
"< 6 7 7 7 7 7 7 7 6 7 7 7 7 7 7 7 7 7 7 7 6 7 7 7 7 7 7 7 7 7 7 7 7 7 7 7 7 7 7 7 7 7 7 7 7 7 9 7 7 7 7 7 7 7 7 7 7 7 7 7 7 6 2 ",
"< q / / / ( / X.) / / ( / ( ( X.( 0 ( ( ( ( V X.) / / / ( ( ( X.) / ( / / / / X.( V ( ( / / / X.) 0 / / ( ( ( X.) / ( 0 / / 9 t ",
"1 ) } } { _ / _ } } } } } _ / _ } } } } } { / _ } } { } } } ( } } } } } { { / ` } } } } { { 0 ` } } } } } _ 0 _ } } } } } { q < ",
", ..:.:.:. ./ _  .-. . . .} ( ( } =. .=. .{ / _  . . .=. .} ( _  .=.=.=.=.{ / _  .-. .=. .} / _  . .=. .-.} ( (  .-.:.>.>.:.0 < ",
"2 6.r.5.r.3.V 5 5 5 5 5 5 5 5 5 5 5 5 5 5 5 5 5 5 5 5 5 5 5 5 5 5 5 5 5 7 5 5 5 5 5 5 5 5 5 5 5 7 5 5 7 7 5 5 7 5 8 3.5.r.3.` < ",
"2 6.r.s.r.s.8._ _ _ _ ( / ( 0 0 0 0 8 7 8 7 7 7 8 7 8 8 0 0 0 0 / 0 / ( ( ( / _ _ _ | O.O.O.&.1.1.8.a.c.b.b.M.G.M.q 8.r.s.r.` < ",
"2 6.2.F.p.d.r.-.=.} } _ _ ( ( ( / 0 0 0 8 8 8 8 8 0 0 0 0 / 0 ( ( _ _ { } } =.=.:.,.4.r.y.u.i.Z.S.F.K.I.}.|.XXOX{.w 3.3.F.t.` < ",
"2 1. ...3.d.t. . .} _ _ ( ( / / / 0 8 8 8 8 8 0 0 0 0 0 ( 0 V ( _ _ _ } }  .=.-.,.5.r.r.y.d.Z.S.F.P.I.`.|.XXoX+X{.w <.=.=.r.` < ",
"2 6.2.3.r.d.r.} _ _ _ ( / / / 0 8 0 8 7 8 8 8 8 0 0 0 / ( ( _ _ _ } }  . .-.>.2.5.5.r.y.s.A.S.J.K._.'.|.XXoX+X@X_.q 3.2.3.r.` < ",
"2 6.r.r.r.d.8.} _ _ ( ( / 0 0 0 8 8 8 8 8 8 0 0 0 0 0 0 ( ( _ _ } } }  .=.:.,.5.r.r.y.i.d.S.D.P.I.'.|.XXoX@X@XoXL.q 3.r.r.5.` < ",
"2 6.r.r.r.s.8._ _ ( ( V 0 0 0 8 8 8 8 8 8 0 0 0 0 0 ( ( ( _ _ _ } }  .-.:.,.2.r.r.y.d.d.S.F.P.I.'..XXXoX+X@XoXXXm.9 8.r.r.5.` < ",
"2 6.r.r.r.d.6._ ( ( / 0 0 0 8 8 8 8 8 8 0 0 0 0 0 ( ( ( _ _ _ } }  .-.-.>.r.5.r.u.i.Z.S.D.K.I.'.}.XXoX+X@XoX.X`.e.8 3.r.r.5.` < ",
"2 6.r.r.r.s.6.( ( 0 0 0 0 8 8 8 8 8 0 8 0 0 0 0 ( ( ( _ _ } } }  .-.-.,.5.r.r.y.s.A.S.F.P._.`.|.XXoX@X+XoX|.}.I.e.8 8.r.r.5.` < ",
"2 6.r.s.r.d.6.( ( 0 0 0 8 8 8 8 8 8 0 0 0 0 0 ( ( ( _ _ _ }  . . .:.>.5.r.r.i.s.d.S.F.K.Y.}.}.oXoX+X@XoXXX}.I.J.0.9 8.r.s.r.` < ",
"2 6.3.F.p.d.6.( 0 0 0 8 8 8 8 8 8 8 0 / V 0 0 ( _ _ _ _ } }  . .:.>.5.r.r.r.i.d.S.D.P.I.`.}.XXoX@X+XoXXX'.I.J.F.7.8 3.1.F.t.` < ",
"2 1. .;.r.d.6.0 0 0 8 8 8 8 8 8 0 0 0 ( 0 ( ( ( _ _ } }  . .-.-.2.5.r.r.y.d.d.S.G.H.I.'.|.XXoX+X@X+X|.'.I.K.J.S.6.7 <. ...5.` < ",
"2 6.2.3.r.d.6.8 0 8 8 8 8 8 8 0 0 0 0 0 ( ( ( _ _ _ } }  . .>.,.4.5.r.y.i.A.S.F.K._.'.}..XoX@X@XoX|.'.P.K.D.S.Z.+.8 3.2.3.5.` < ",
"2 6.r.r.r.d.$.8 8 8 8 8 8 8 8 0 0 0 / 0 ( ( _ _ _ } }  .=.-.2.5.r.r.y.d.A.S.G.P._.'.}.oX+X@X+XoXXX}.I.K.F.S.Z.i.O.8 8.r.r.5.` < ",
", 6.r.r.r.d.$.8 8 8 8 8 8 0 0 0 0 0 ( ( ( _ _ _ }  . .-.-.,.4.r.r.u.i.Z.S.F.K.I.}.}.XXoX+X@XoX.X'.I.J.F.S.d.i.r.O.7 3.r.r.r.` < ",
"2 6.r.r.r.s.$.8 8 8 8 8 0 0 0 0 0 ( ( ( _ _ _ } }  .=.-.,.4.r.r.y.i.d.S.F.P.I.`.|.XXoX+X@XoX|.'.I.J.D.S.A.s.u.r.| 7 3.r.r.5.` < ",
"2 6.r.r.r.v.%.7 8 8 8 0 0 0 0 / ( ( ( _ _ } }  . .-.-.,.5.r.r.y.i.A.S.G.K._.'.|.XXoX+X@XoXXX}.I.K.F.S.d.u.u.y.5.X.8 8.r.r.5.` < ",
"2 6.r.s.r.m.q.8 8 0 0 0 0 0 0 ( ( ( _ _ _ } }  .=.>.,.2.r.r.y.u.d.S.D.K.Y.'.}.XXoX@X@XoXXX'.I.J.D.S.d.i.r.r.5.:.} 7 8.u.s.r.` < ",
"2 6.3.F.s.D.k.8 8 8 0 0 0 0 ( ( ( _ _ _ } }  .-.-.2.5.r.r.y.s.A.S.D.P.Y.'..XXXoX+X+XOX.X}.Y.J.F.S.A.i.u.y.5.2.:._ 7 1.O.F.t.` < ",
"2 1. ...5.K.n.8 8 0 0 0 0 ( ( ( _ _ _ } }  .-.:.>.5.r.r.u.i.A.S.F.K._.'.}.XXoX+X@XoX.X'.I.J.D.S.d.u.r.r.5.:.:.-._ 7 <._ ..2.) < ",
"2 1.2.3.r.U.B.8 0 0 0 0 / ( ( _ _ _ } }  .=.:.>.2.r.r.y.i.Z.S.D.P.I.`.|..XOX+X@XoXXX}.I.K.F.S.A.s.y.r.5.,.:.-.=._ 5 <.2.,.:.) < ",
"2 6.r.r.5.U.B.8 0 0 / ( ( ( _ ` ` | O.O.;.2.3.8.t.r.y.d.Z.S.J.K.Y.'.|.XXoX+X@XOX.X'.Y.J.F.S.d.s.y.r.5.,.:.-.=. .( 5 8.5.-. .0 1 ",
"2 6.r.r.r.P.B.0 0 0 / ( ) _ 0 h M g.g.g.g.g.g.B j.p.i.A.S.F.K.I.'.}..XoX@X@XXX|.}.I.J.D.S.Z.r.u.r.5.,.:.-. .} } 0 7 <.-.} | 0 < ",
"2 6.r.r.5.P.B.0 ( V C C Z _ 0 t z b b z b z z z h.c.A.S.F.P.I.[.|..XOX@X@XOX|.'.I.J.G.S.A.s.y.r.5.2.>.-.-. .} { 0 5  . .} _ ( < ",
"2 6.r.r.5.U.B.0 9 K ~ ~ D { q t z z z b z z z z g.b.S.G.K.I.[.}.XXoX+X@XXX.X'.Y.K.D.S.d.d.r.r.5.>.>.-. .} } } _ 0 5 _ _ _ } 0 < ",
"2 6.r.s.r.U.M.0 > & Q ~ S } 0 t z z z z z c z z h.D.F.P.I.`.|.XXoX+X@XoX.X'.I.J.D.S.A.u.y.r.4.2.-.-.-. .} } _ ( 8 5 _ _ } } ) < ",
"2 6.3.F.s.U.B.8 > O E W Z  .( t z z z b z z b z h.H.K.I.}.|.XXoX+X@X+X.X'.Y.H.F.S.A.i.y.r.5.,.>.-. . .} } _ ( ( 8 5 ) ( O.| q < ",
"2 1. ...r.K.n.8 8 3 R ! [  .( t x x d f g g x x R.I.I.'.}.XXoX@X@XXX|.}.I.J.D.S.d.i.y.r.4.,.:.-. . .} } _ ( ( / 8 5 ( / ( } ) < ",
"2 6.2.3.5.d.0.0 _ 3 R T [ -.( t x s = G P ^ n x E._.'.|.XXoX+X@XoX.X}.Y.G.F.S.A.i.y.r.5.,.:.-.=. .} _ _ ( _ ( / 8 5 _ _ }  .) < ",
"2 6.r.r.;.:.} ( { 3 R T &.:.) 2 s y $ ;   Y n N ~.[.}.XXoX+X+XoX.X`.I.J.D.S.s.s.y.r.5.>.:.-. . .} _ _ _ ( / / 0 7 5 ( } =.>.) < ",
"2 6.r.5.-.-.} ( } 3 R T &.,.' t x r $ r . P g B (..X.XOX@X@XOX|.}.I.K.F.S.A.u.u.r.2.2.:.-. . .} } _ _ V / / 0 0 8 5 _  .,.4.` < ",
"2 6.r.5.=. .} (  .4 I U &.5.' t s r $ d : P n W. XoXoX@X@XoXXX}.Y.J.F.S.A.s.u.r.r.>.:.-. . .} _ _ _ ( V / 0 0 0 8 5 } ,.r.3.) < ",
"2 6.r.5.-. .} ( =.4 H L 6.u.' t x X + $ % - n ^. XoX+X@XoXXX'.I.J.D.S.d.u.r.r.5.>.:.-. . .} { _ ( / ( / 0 0 0 8 7 5 ;.r.2.:.) < ",
"2 6.r.i.;. .} _ :.4 G J *.y.' t s e X : y x F ^.#X%X@XoX|.'.Y.K.G.S.A.i.r.r.5.4.:.-.-. .} _ _ ( ( ( / 0 0 0 8 8 8 5 3.4.2.2.) 1 ",
"2 6.3.F.<. .} _ _ # * * F u.' t x x x x x N W.(.$X%XoX|.'.I.K.D.S.d.s.u.r.5.>.>.-. . .} _ _ _ ( ( 0 0 0 8 0 8 8 7 5 <.;.F.t.) , ",
"2 1. .;.=.=.} 0 5 o @ # A s.@.2 x x c b m T.Q.).$X+XXX[.Y.K.F.S.d.i.u.r.5.2.>.-.-. .} } _ ( ( ( 0 0 0 0 8 8 8 8 7 5  . ...5.` < ",
"2 6.2.2.=. .} 8 5 > 6 o.t.d.#.2 x x b m T.Q.(.^. X.X'._.G.D.S.d.u.r.r.r.,.-.-. . .} _ _ _ ( / / 0 0 8 0 8 8 8 8 8 5 ;.2.3.5.) 1 ",
"2 6.r.5.=. .} 0 8 / 2.i.d.S.#.t s x N T.Q.(.W.R./.[.I.K.F.S.A.s.u.r.5.,.-.-. . .} _ _ ( ( / V 0 0 0 8 8 8 8 8 8 7 5 3.r.r.5.) < ",
"2 6.r.5.;. .} 0 ) 3.s.A.S.J.%., e u p l M v k l !.`.K.F.S.d.u.r.r.5.,.>.-.-. .} } _ _ ( / / / 0 8 0 8 8 8 8 0 8 8 5 6.r.r.5.` < ",
"2 6.r.5.-.>.| } 4.i.A.S.D.K.B.f.l.l.z.N.z.l.l.k.L.J.D.S.d.i.r.r.5.>.>.-. . .} } _ ( ( ( 0 0 0 8 0 8 8 8 8 0 8 0 9 5 3.r.r.r.) < ",
"2 6.r.r.4.9.9.4.s.d.S.F.P._.].|.XXOX@X@X+X.X|._.J.F.S.A.i.u.r.5.2.>.-. . .} _ _ _ V ( ( 0 0 0 0 8 8 8 8 8 8 8 0 8 5 3.r.r.5.) < ",
"2 6.r.s.r.F.J.i.Z.D.D.K.I.'.}.XXoXOX@XoX.X'.P.K.D.S.d.u.y.r.r.>.-.-. . .} } _ _ ( ( 0 0 0 0 8 8 8 8 8 8 8 0 0 / 8 5 6.r.s.5.) < ",
"2 6.3.F.i.U.].A.S.D.P._.`.|.XXOX+X@XoXXX}.I.K.F.S.A.s.y.r.5.,.-.-. . .} _ ] ( ( ( 0 0 0 0 8 8 8 8 8 8 8 0 0 0 / 8 5 3.3.F.t.) 1 ",
"2 &.=.;.5.U.].S.F.J.`.}.}.XXoX@X@XOXXX'.I.K.F.S.Z.s.y.r.5.,.>.-.-.} } } _ _ ( ( 0 0 0 0 0 8 8 8 8 8 8 0 / / / ( 0 5 <. .=.r.` < ",
"2 6.2.3.5.U.'.D.P.I.`.}.XXoX+X@XXX|.}.I.J.D.S.Z.u.y.r.5.,.>.-. . .} { _ ( ( / 0 0 0 8 0 8 8 8 8 8 8 0 0 V ( / _ 0 5 3.2.5.5.` < ",
"2 6.r.r.5.U.}.P.I.'.|.XXoX+X@XoXXX'.I.G.F.S.d.i.y.r.r.2.>.-.-. .} _ _ ( ( ( 0 0 0 0 8 8 8 7 8 8 8 0 0 0 ( ( _ _ / 6 1.r.t.5.` < ",
"2 6.r.r.r.U.|.I.'.}.XXoX@X@XoXXX`.I.K.D.S.d.d.y.r.5.,.-.-. .} } } _ _ ( / 0 0 0 8 0 0 7 8 0 8 8 0 0 0 ( ( ( _ _ / 5 8.y.r.5.` < ",
"2 6.r.r.5.P.XX'.|.XX+X+X@XoX|.}._.K.F.S.A.u.y.r.4.4.-.-.-. .} _ _ _ ( ( 0 0 0 0 0 0 8 8 8 8 0 0 0 0 ( ( ( _ } } ( 5 3.r.r.5.` < ",
"2 6.r.r.5.U.oX}.XXoX+X+XoXXX'.I.J.D.S.d.i.y.r.5.,.-.-.=. .} } _ ( ( ( 0 0 0 8 0 7 8 7 8 8 8 8 0 0 ( ( ( _ } }  ._ 5 8.r.5.5.` < ",
"2 6.r.s.r.U.oX.XoX+X+XoXXX'.I.K.F.S.Z.i.y.t.4.,.>.-. . .} _ _ _ ( / 0 0 0 0 0 8 8 8 0 8 8 0 / / ( ( ( _ _ }  . ._ 7 8.r.s.r.` < ",
"2 6.3.J.v.].+XoX+X@X+XXX'.I.K.F.S.A.u.r.r.5.,.:.-.=. .} } _ ( ( ( V 0 0 8 0 8 8 8 7 0 8 0 0 / / ( _ _ } }  .-.-.{ 5 1.3.F.p.` < ",
"2 1. .6.D..X&X@X@XoX|.}.P.K.D.b.Z.s.r.r.4.:.:.-. . .} } _ ( ) 0 / 0 0 8 8 8 7 7 8 8 8 8 / q / / ( _ { }  .=.=.:.| 5 <.-.<.5.` < ",
"2 6.5.D.P.oX*X@XOXXX.X}.].].Y.U.K.J.J.J.F.D.D.D.m.m.c.e.e.e.6.9.7.q.q.q.q.q.q.+.X.+.*.q.q.q.e.q.e.e.e.a.a.a.d.A.1.9 3.<.4.5.` < ",
"2 w.F.P.P.[.XX'.K.J.J.J.J.J.J.F.J.J.J.G.J.J.J.J.J.J.F.a.a.e.8.8.9.e.a.v.b.D.b.y.2.i.S.m.S.S.m.S.S.D.b.D.m.S.m.b.r.1.5.r.r.r.` < ",
"2 n.P.P.I.P.K.D.u.5.5.r.5.r.r.i.r.5.r.r.r.r.r.i.r.5.>. .} _ _ } { {  .>.5.r.2.2.3.r.r.r.r.r.r.s.r.5.5.r.r.r.5.s.r.r.r.r.r.5.` < ",
"2 C.I.P.P.K.a.G.p.r.r.r.r.r.3.F.s.r.r.r.r.r.3.F.s.,. .} } _ ( O. . .,.5.r.2.=.G.s.r.r.r.r.r.3.F.p.r.r.r.r.r.3.G.p.r.r.r.r.5.` < ",
"t C.P.I.K.d.=.;.r.r.r.r.r.4...=.r.r.r.r.r.4. ...>. .} } } _ 0 (  .>.r.r.2.:. ...r.r.r.r.r.4. ...r.r.r.r.r.5. .=.r.r.r.r.r.5.` < ",
"p V.C.V.x.6.<.6.9.9.6.9.9.8.1.6.6.9.9.9.9.6.<.....` ) ` ` ` ` | <.6.9.6...O.1.1.6.9.9.9.6.9.1.6.9.9.6.9.9.6.1.1.9.9.9.9.9.9./ y ",
"p l l l k k k k k k k k k k k j k k k k k k k j i i i i i i i i k k k j j k k k k k k k k k k k k k k k k k k k k k k k k k a p "
};
