/* XPM */
static char *_139_501ce9511955797d3cca71a0290486b9ff8def39ef37f6fbfed3c52861b783a3[] = {
/* columns rows colors chars-per-pixel */
"64 64 58 1 ",
"  c #303030",
". c #3C3C3C",
"X c #144C4C",
"o c #194E4E",
"O c #1A5757",
"+ c #1A5B5B",
"@ c #1E6464",
"# c #1F6E6E",
"$ c #236B6B",
"% c #247373",
"& c #287676",
"* c #2D7C7C",
"= c #444444",
"- c #484747",
"; c #474C4C",
": c #4D4D4D",
"> c #504F4F",
", c #4D5252",
"< c #545454",
"1 c #585757",
"2 c #555A5A",
"3 c #5B5B5B",
"4 c #5D6262",
"5 c #646464",
"6 c #686767",
"7 c #636969",
"8 c #6B6B6B",
"9 c #6B7070",
"0 c #747474",
"q c #747979",
"w c #7C7C7C",
"e c #2E8989",
"r c #318D8D",
"t c #349595",
"y c #369898",
"u c #389F9F",
"i c #38A3A3",
"p c #38A9A9",
"a c #3EB5B5",
"s c #7E8383",
"d c #40B7B7",
"f c #838383",
"g c #858B8B",
"h c #8C8C8C",
"j c #908F8F",
"k c #8D9393",
"l c #939393",
"z c #989797",
"x c #949A9A",
"c c #9B9B9B",
"v c #9DA3A3",
"b c #A4A4A4",
"n c #A5ABAB",
"m c #ABABAB",
"M c #B0AFAF",
"N c #ADB5B5",
"B c #B3B3B3",
"V c #B9B8B8",
/* pixels */
":6666666665665555533333<<<:;-----==----==....=..=.............. ",
"3BBVBBmNmmmmmmmccvczzzzhhhjhhffgfwwf0w00w008088668665353<333<<<.",
"3VNNBBVBBmBmmmnmbccccczzzllhhlhfghffwwww0000008896665533333<<<<.",
"3npdNBBBBmmmmmbcbbbcccczlllhhhhhgwfwwww0w000088866666555331<O+,.",
"5veiNBBBMmmmmbbmbcccxzzhzlhjhhhffffwwww000008998866655333<<<oO,.",
"3MnmBBBBBmmmbmbbbcccclzlllhhhhhfffffww0ww000088886545433333<,,,.",
"3BVBBBBBMmmmbmbbcccczzzlhhlhhffffwwwfw000008808666653333<<<<1::.",
"3VVVBBBBmmmbbbcbcczzczllllhhhfhffwww00w0000006866664353311<:<,<.",
"3BBBBBBmmmmbbbbccccxllzljhhjhfffffw0wf0000068806655533<33<<<<::.",
"3BNNBBBBmmmmmcccczzzzllhjhhfffhwwwww000w00080666535535331<,<,;<.",
"3buanBmmmmmbbcbcccczljljjjjhhwffwfww000000888666653333<<<<<,O+;.",
"3veuNmmmmbbbbcbccczlllhljhfhfffwww0w0000800886865553333<1<<=XO;.",
"5mvbBMmMmmbcbccczczllljhfhhffffwwwww000008888865565333<3<<1-=;:.",
"3BBNmBmmmbmbccccczlclhjjjffffffwww000w0008886656333533<<<<::,,:.",
"3mMBmmmmmbbbbbccczlllljjhhhffwfww00w0000886886655543<<<<<><:>-;.",
"3MBmmmmmbbbbcccccljlljjhhfffffwwwww0000880086665333133<<<><>-;>.",
"3mmnmmmmbbcccccczzzjjhhhhhfhfwwww00000088888555553333<<<<<::;;:.",
"3vypnmbnmbbcccczzzlklhhhfffffwwwww000008986655533531<<1<-:<;O+;.",
"3z*ybmmmcbbccczzzlllllhhhhffwwww00000800886865553311<<:<<::-XO;.",
"3mxvmmbbbmcccccllllhhhhhffhffww0w000008808655553333<<<<<::;-=;;.",
"1mmmmmmbccbccczlcjlhhhfhfhwwwfwwwww0088866665533333<<<<:><::::>.",
"<mmmmnbbbbccccxllhllhhhhfffwwww000000088666655533<<<<<::::>:;:-.",
"1mNmmbbbccczzzzlzhhhhhhfwffwwww0000808986665335113<<<>:<;-::-><.",
"1bnbmbbbccxcczzlllhhhhffffwf0ww000009888866553333<<<<<:::>->,;;.",
"1cypvmbcbccczzzhhlhlfffhffwwf000w008808666653333<<<<>::<<::;++,.",
"1l*ycbcbccxccljlzhhhhhffwwww0ww0000086666654533<<<<:<<::-;-=XO;.",
"<bxcmmccccczklzllhhhgffffww0w00000888886555333333<<<:-:-->>;=;<.",
"<bmmbbcbzczzzzjhhhfhghgwwwwww000080888865355333<<<<<:<::>:<:><<.",
"<cbbbcccccxclhjlhlhhfffwwwww0000098086665533533<<<<:<::<;:<:<<<.",
";vbmbccczzzllzjlhhhffffwfww00000808668865555<3<<<<<<1:-:-<:<><>.",
"-cbvbcccczllzlhhhhhfffff0www00000888867556333<3<<<<-;-:><>,,<,<.",
":xtyxccczlzlhlkhhfffffwwww00w000889665553335<3<1<:<:<:::-<1,+@<.",
"-g&excccczljjjjhfhgfwfwwww0w0000088686653513<<<<<:<-::-><<<;X@<.",
"-czkccczllzljjgjjfwgfwwwww0000880886665555<333<<><<:::<-:<<<:<<.",
";zcbccxzzzjjjjfhfffwfwfw0ww00008888665553333<<<<<>:;:-:::<<1<3<.",
"-zbccczzlljjjjjfhfgfwwww0000008086666543353<<<<<-:<--;<:<<<<331.",
"-zbcclzzlllhjhfhfffwwww00w008008868655553<<3<>:<<<:;-><>,<<2<11.",
"-zxxcxlllzlhhhhfffffwwww0000006806666531333<<<<<:->:<>::<1<1243.",
";geyxzzzzhhjjfffhfwfwfw0000888086655533531<<<<::<>:-::<<<332@#2.",
";f&elcljkzlhhhhfwwwww0ww00000868865545313<<<<<<:;--<<>><<<1<O#4.",
";lhhclhzjjjhhgffhwwwww00000888866665353113<<:<::-:<:;<<<<335<24.",
"-jcczzlljjhhhgfffff00ww000088898655753313<<<<<:::;>:><<<<335333.",
";lczzzlhjjjhffhfwwwfw0000086086665533331<<<<:>>>::<:><<33333355.",
"-lzczllljjhjjffwwwf000w00000666865554311<<:<<<::<>>><<<<<<35535.",
";lkkllzhhfjhfffff0www000806898655553133<<<><;-::><<<<<133443345.",
"-getkklhjhffhffwwwf00w000089666545533<3<<<<<><--;-<<<1333334#%4.",
";f%egjlhjhhffwfwwww0000008886666535433<<<<:::<-;:<>><<<31334@%7.",
"-hsgzllhhjfhffwfw0w0w00009888665355<31<1<<:<-:><>><1<<333335456.",
"-hzzjjhfjhffffwwwww0w00088886655533<33<<<<>;-:-><:<<<3335335665.",
"-hchjjjhgfffffwww0000008808665553353<<<<<:><:::;><1<<33<3565666.",
";hlhjjjgfhffwfw0www0000086686535533<<<<::<>:::<<<<<<3<<55556686.",
"-kkhhhjjhffffwwww0000088806665533313<1><>::-:<:-<<<<<3533556786.",
"-srtghhgfhwfwfw0w0q0008898655455333<<<<<:::--:<<<<1333335554%%4.",
"-w%eghgfffwwwwww000000808666553333<<<<<::>::><:<<<<333355664@%7.",
"-fffkhhhffwffw000000808668665553<13<<-><>-:<::<<<<3333535568478.",
"-hkhhhfffhff00ww000006608665533<33<<<<<>:;:::<<<<<<353354666898=",
"=fjlffghfwwwfw00w00088866555533333<<<<::<;->><<<<33333555689688=",
"=hjhjhfffwfw00w00009886665555533<<:<<<<:::><:><<<11354556888806.",
"=fhghffffwwwww00088088886635333<<<<<<<>;:<::<<<<335335666688999.",
"=w*rgffffw0w00w000088886555533333<<<<::--:><<<3<313355556869%&8=",
"=0$efffwwwfw00w000689665553335<<<<<--<>;-<><<<<3133555566986#%8.",
".fqsffwffw00w000000686666535<33<<<<<<:->;<<<<<1<333555688690690.",
"=wfwwffw000w0008866685554533<<<<<<:::->>::<<<<<3333355556886809=",
" ===.=...........=..=.............................=......=.=... "
};
