/* XPM */
static char *_729_c3a1ad9b862eb096ee7108cc0805bf835996e28f62019e3f93bc156b546650c7[] = {
/* columns rows colors chars-per-pixel */
"64 64 218 2 ",
"   c #000001",
".  c #01000C",
"X  c #0D0005",
"o  c #130002",
"O  c #190004",
"+  c #010114",
"@  c #01001C",
"#  c #0B0718",
"$  c #14051A",
"%  c #1C1C1D",
"&  c #2A0202",
"*  c #3B0203",
"=  c #370409",
"-  c #3D0213",
";  c #000024",
":  c #00002B",
">  c #0C062A",
",  c #17172B",
"<  c #000034",
"1  c #01003B",
"2  c #0A0738",
"3  c #171037",
"4  c #290B2E",
"5  c #28233A",
"6  c #37373D",
"7  c #450000",
"8  c #4B0202",
"9  c #46070A",
"0  c #540505",
"q  c #5B0707",
"w  c #5B0905",
"e  c #540B0B",
"r  c #5D0909",
"t  c #580808",
"y  c #5E1408",
"u  c #5B1A1A",
"i  c #581718",
"p  c #481110",
"a  c #630B0B",
"s  c #6A0E0E",
"d  c #650C06",
"f  c #651507",
"g  c #761E0C",
"h  c #631414",
"j  c #6D1111",
"k  c #6C1B1B",
"l  c #641919",
"z  c #731414",
"x  c #791717",
"c  c #751B1B",
"v  c #7C1A1A",
"b  c #7C1A17",
"n  c #7D2214",
"m  c #6D260C",
"M  c #521424",
"N  c #492824",
"B  c #532C2D",
"V  c #5B2626",
"C  c #483229",
"Z  c #423839",
"A  c #5D3735",
"S  c #562D2F",
"D  c #632423",
"F  c #6C2525",
"G  c #662B28",
"H  c #732C2C",
"J  c #792828",
"K  c #653A38",
"L  c #7D3C3C",
"P  c #723232",
"I  c #75302E",
"U  c #5B2B1E",
"Y  c #4B403F",
"T  c #5B453D",
"R  c #71403F",
"E  c #000043",
"W  c #00004B",
"Q  c #0A0749",
"!  c #191846",
"~  c #000052",
"^  c #00005B",
"/  c #090358",
"(  c #200052",
")  c #3D3D4A",
"_  c #2D2B50",
"`  c #000063",
"'  c #00006C",
"]  c #0C0B66",
"[  c #010074",
"{  c #01017D",
"}  c #0C0C70",
"|  c #170475",
" . c #1A166E",
".. c #34336E",
"X. c #433846",
"o. c #454545",
"O. c #4B4A4A",
"+. c #44444D",
"@. c #534B4B",
"#. c #584A4A",
"$. c #545555",
"%. c #5B5555",
"&. c #5B5A5A",
"*. c #59575A",
"=. c #4F4D50",
"-. c #654646",
";. c #6A4A4A",
":. c #784646",
">. c #665454",
",. c #695C5C",
"<. c #6A5757",
"1. c #755C5C",
"2. c #6B625C",
"3. c #535467",
"4. c #555577",
"5. c #5F6060",
"6. c #646363",
"7. c #6B6B6B",
"8. c #6C6565",
"9. c #7C6161",
"0. c #776766",
"q. c #747473",
"w. c #7C7C7C",
"e. c #797776",
"r. c #72726F",
"t. c #821E1E",
"y. c #842818",
"u. c #873215",
"i. c #9E3802",
"p. c #852121",
"a. c #8B2424",
"s. c #8D2929",
"d. c #8F2728",
"f. c #922C2C",
"g. c #963232",
"h. c #9A3333",
"j. c #9F3939",
"k. c #973A36",
"l. c #A43C3C",
"z. c #A43B3B",
"x. c #8D460E",
"c. c #985912",
"v. c #955014",
"b. c #9D6215",
"n. c #AB741F",
"m. c #9D5021",
"M. c #AC5339",
"N. c #A95C2E",
"B. c #B07C20",
"V. c #AB612D",
"C. c #825E5E",
"Z. c #A64141",
"A. c #AB4444",
"S. c #AE4848",
"D. c #AA4D40",
"F. c #B24C4C",
"G. c #B65151",
"H. c #B95555",
"J. c #BD595A",
"K. c #B7564E",
"L. c #8B6666",
"P. c #807F7F",
"I. c #C15D5D",
"U. c #C1605D",
"Y. c #C66464",
"T. c #CA6969",
"R. c #C86666",
"E. c #B78728",
"W. c #C1992F",
"Q. c #CAA636",
"!. c #D2B33F",
"~. c #D7BB43",
"^. c #E5D252",
"/. c #F1E761",
"(. c #DBC146",
"). c #010184",
"_. c #00008B",
"`. c #0E0E87",
"'. c #000094",
"]. c #00009C",
"[. c #181884",
"{. c #30308E",
"}. c #0000A3",
"|. c #0000AC",
" X c #0000B4",
".X c #0000BB",
"XX c #45448A",
"oX c #0000C2",
"OX c #0101CD",
"+X c #0000D3",
"@X c #0000DC",
"#X c #0B0BD7",
"$X c #1313D1",
"%X c #2121C2",
"&X c #0000E5",
"*X c #0000EB",
"=X c #0D0DE2",
"-X c #0909F8",
";X c #1717F9",
":X c #1414EE",
">X c #3C3CFF",
",X c #3737FF",
"<X c #2B2BFD",
"1X c #4949FF",
"2X c #5A5AFF",
"3X c #7F8181",
"4X c #848484",
"5X c #8B8B8B",
"6X c #888686",
"7X c #91908F",
"8X c #929393",
"9X c #9C9B9B",
"0X c #979898",
"qX c #908F91",
"wX c #A7A7A7",
"eX c #BCB9B9",
"rX c #C2C3C3",
"tX c None",
/* pixels */
"tXtXtXtXtXtXtXtXtXtX7.r.tXtXtXtXtXtXtXtXtXtXtXtXtXtXtXtXtXtXtXtXtXtXtXtXtXtXtXtXtXtXtXtXtXtXtXtXtXtXtXtX7.7.tXtXtXtXtXtXtXtXtXtX",
"tXtXtXtXtXtXtXtXtXtX6.r.tXtXtXtXtXtXtXtXtXtXtXtXtXtXtXtXtXtXtXtXtXtXtXtXtXtXtXtXtXtXtXtXtXtXtXtXtXtXtXtXq.6.tXtXtXtXtXtXtXtXtXtX",
"tXtXtXtXtXtXtXtXtXtX6.q.tXtXtXtXtXtXtXtXtXtXtXtXtXtXtXtXtXtXtXtXtXtXtXtXtXtXtXtXtXtXtXtXtXtXtXtXtXtXtXtXq.6.tXtXtXtXtXtXtXtXtXtX",
"tXtXtXtXtXtXtXtXtXtX6.q.e.tXtXtXtXtXtXtXtXtXtXtXtXtXtXtXtXtXtXtXtXtXtXtXtXtXtXtXtXtXtXtXtXtXtXtXtXtXtXe.q.6.tXtXtXtXtXtXtXtXtXtX",
"tXtXtXtXtXtXtXtXtXtX&.7.XX6XtXtXtXtXtXtXtXtXtXtXtXtXtXtXtXtXtXtXtXtXtXtXtXtXtXtXtXtXtXtXtXtXtXtXtXtXw.3X7.&.tXtXtXtXtXtXtXtXtXtX",
"tXtXtXtXtXtXtXtXtXtX&.8.7X7XtXtXtXtXtXtXtXtXtXtXtXtXtXtXtXtXtXtXtXtXtXtXtXtXtXtXtXtXtXtXtXtXtXtXtXtX5Xw.7.&.tXtXtXtXtXtXtXtXtXtX",
"tXtXtXtXtXtXtXtXtXtX$.6.r.4X5XtXtXtXtXtXtXtXtXtXtXtXtXtXtXtXtXtXtXtXtXtXtXtXtXtXtXtXtXtXtXtXtXtXtX6X4Xq.5.*.tXtXtXtXtXtXtXtXtXtX",
"tXtXtXtXtXtXtXtXtXtXo.$.8.w.5X7X4XtXq.w.tXtXtXtXtXtXtXtXtXtXtXtXtXtXtXtXtXtXtXtXtXtXtX7.w.q.tX4X5X6Xw.6.$.o.tXtXtXtXtXtXtXtXtXtX",
"tXtXtXtXtXtXtXtXtXtXtXO.$.7.w.5X7X7XP.6.tXtXtXtXtXtXtXtXtXtXtXtXtXtXtXtXtXtXtXtXtXtXtX&.6.3XqXqX5Xw.7.$.O.tXtXtXtXtXtXtXtXtXtXtX",
"tXtXtXtXtXtXtXtXtXtXtXO.O.$.7.e.5X9X9X5Xe.tXtXtXtXtXq a z v x t.t.x v z a a t tXtXtX%.q.5X9X9X5Xw.6.$.O.o.tXtXtXtXtXtXtXtXtXtXtX",
"tXtXtXtXtXtXtXtXtXtXtXtXO.O.$.7.e.5XwXrXrXL.j x x a t q s z j x z z z s q q a s x j L.rXrXwX5Xw.6.&.O.O.tXtXtXtXtXtXtXtXtXtXtXtX",
"tXtXtXtXtX6.4XtXtXtXtXtXo.O.$.5.7.e.7XwXrXeXL b t.s a t a z x j j z z a q d a t.t.L eXrXwXqXe.7.6.$.o.o.tXtXtXtXtX4X6.tXtXtXtXtX",
"tXtXtXtXtXtX7.4X8XtXtXtXtXB O.6.r.7.r.P.8X9Xk.t.x s s a s s z v v z s s a a s x x k.9X8XP.q.7.7.6.O.B tXtXtXtX8X6X7.tXtXtXtXtXtX",
"tXtXtXtXtXtX6.7.6X5Xe.,.tXa u @.3.8.7.7.q.1.k x z s x x z s a s s a s z x z s z c k 1.q.7.7.8.&.@.u a tX,.q.5X5X7.6.tXtXtXtXtXtX",
"tXtXtXtXtXtXtX5.7.6X6Xe.;.x a l A #.*.&.-.k z j a a z v x j r 0 t q s x x j j s s z k -.%.*.#.A l s c ;.q.5X6X7.5.tXtXtXtXtXtXtX",
"tXtXtXtXtXtXtX$.&.7.w.w.2.J a a s k D F j s s s j z s j s a 0 8 8 0 a j j x t.x s s s j F F k s a h p.,.e.w.7.&.$.tXtXtXtXtXtXtX",
"tXtXtXtXtXtXtXtXX.@.>.,.L y.a e r a a a a a s j x t.t.x z a 0 0 0 0 s j v p.a.t.x a q a a a a a t a t.L <.*.@.o.tXtXtXtXtXtXtXtX",
"tXtXtXtXtXtXtXtXj h l F v z j a q q 0 a a s s x t.p.p.p.x j a q 0 a j v a.d.a.a.t.a a a q a 0 0 a s z v c h u j tXtXtXtXtXtXtXtX",
"tXtXtXtXtXtXtXv j a a a s s j s j a 0 r a a s z a.d.a.p.v z a q a a z a.d.f.d.p.z a d a q a a j s j j s a a a j v tXtXtXtXtXtXtX",
"tXtXtXtXtXtXa a a s s a s s r j x a a s a a a s c a.a.t.z j z a a j j v d.a.y.z a a a a a a a x j a s s a s s a a a tXtXtXtXtXtX",
"tXtXtXtXtXz a r a a s x p.x s t.x z v v p.t.z a a j x v z x n g g y.z z b b z a d s t.t.t.v j x v s x a.x s a a a a j tXtXtXtXtX",
"tXtXtXtXtXr a j t.a s z x z x t.d.t.t.t.p.p.x j a s y.u.u.y.x.v.v.u.u.y.n b s d a z t.p.t.t.t.a.t.v z z z s d t.j r r tXtXtXtXtX",
"tXtXtXtXtX8 0 a s q a a s t.d.g.g.p.x z v d.a.x a j u.v.b.n.E.E.E.E.n.b.x.u.z a z a.f.t.x z p.h.h.d.v s a q q s a 0 0 tXtXtXtXtX",
"tXtXtXtXtX7 8 0 0 0 a j p.d.g.z.l.j.t.x t.g.j.a.z g c.n.Q.^.^.(.(.^.^.W.B.v.b z a.z.h.t.x t.z.Z.z.g.f.a.j a 0 t 0 8 8 tXtXtXtXtX",
"tXtXtXtXtX8 8 8 7 t v s.h.g.l.F.S.Z.f.p.x p.g.h.d.u.b.E.!././.!.!././.Q.E.c.u.d.g.g.p.v t.f.z.S.A.M.g.h.s.x t 8 8 7 8 t tXtXtXtX",
"tXtXtXj a t 8 7 8 a p.f.j.S.H.G.I.G.l.g.f.h.A.F.S.k.m.n.E.!.^.~.(.^.~.E.n.m.z.F.G.Z.h.d.g.Z.G.I.G.H.S.j.f.t.s 7 7 7 q s z tXtXtX",
"tXtXtXj s z a t 0 a r s v d.j.M.G.G.z.z.A.H.R.T.Y.I.K.M.M.V.E.E.W.E.V.M.M.K.H.Y.T.T.J.A.z.z.G.G.Z.z.f.p.z r a t 0 r z j j tXtXtX",
"tXtXw 0 r a a s c a 8 f s s v f.z.z.h.A.Y.T.R.U.G.G.K.I.R.U.V.m.c.N.I.R.I.H.G.H.I.T.T.I.A.h.z.z.d.x j z g 8 a z j r a r t w tXtX",
"tXtXy 8 8 0 t a z w 8 A R F F a.g.k.g.A.J.H.F.l.l.A.F.I.R.T.D.f.g.D.R.R.I.G.A.l.z.A.J.I.F.g.k.g.t.c I R A 8 a z a t 0 8 8 y tXtX",
"tXtX0 8 7 8 8 t w 8 8 Z $.6.%.P L.e.H c a.g.j.j.S.H.I.I.J.G.h.h.g.h.G.J.I.I.H.A.g.h.z.Z.g.H e.L.I %.6.$.Z 9 0 q t 8 7 7 8 0 tXtX",
"tXtXs r 8 7 7 8 8 8 i B Z O.) 5 *.P.-.9.;.z x x t.h.A.A.l.Z.f.f.f.f.A.l.A.S.h.p.c y.u.L.9.;.w.*.5 X.+.X.B y 0 8 8 8 8 0 r h tXtX",
"tXc y.z a 0 7 7 8 a y.g C % 2 1 _ %.%.w.w.H x x z t.t.a.f.f.f.d.d.f.f.s.p.t.v z g n f.5XXX&.$.) 2 Q % N m y.a 7 7 7 0 a z v v tX",
"z t.t.z a 0 8 7 7 w g f &   < @ % 6 o.&.5.K i M G K J v x v a.s.a.a.v v v J K G M M K 6.&.o.6 % : E # 4 y m d 7 7 7 q s z v t.z ",
"j z z s a 8 8 7 7 8 w & X   1 ; . ! 5 Y o.5 / ] =.e.0.H v v a.l.l.a.v v I 9.w.O.Q Q _ X.) 5 3 + W ^ W E & w 8 7 7 7 8 r s z z j ",
"a s a a t 0 0 8 p C e o   . W ` ` [ 1 # 2 ~ ` [ ..r.6.N N L.1.9.9.1.L.N N 6.q...E < [ } ] { ~ . ^ ~ ; . & y C p 8 0 0 q a a j s ",
"a a q a t a r r T 6XF O : ~ ` 1 ' { ~ 1 ; @ ~ _. .O.+.# , 3.&.e.e.&.$., , ) o.5 W ` ).^ E [ <   : 1   o 7 G 6XT e w a 0 a r q d ",
"q a s z a j a r <.w.U = 1 : .   ^ ` ; .     ~ }.'.] Q < E `.{.3.3.) ! 1 W } < ; . W }._.' ' @ ; . . > 9 8 M w.>.a a a q z s a q ",
"tXa j j j z a a R ;.e 7 X     + ` : ; .     ` }.[ W < E ^ |.].).`.{ ` ~ W '.' @ + ; { }.'.' ; ; < + > 7 0 e ;.K a a z a j s a tX",
"tXs s d z v j j j a t 7 o     W ` + < @     [ '.W < E W ).|._.}.}._.[ ^ W ).).; ; < ` '.'.E + : : : o 8 8 0 0 q a j t.a a a j tX",
"tXt.a a z t.z v v j t 7 &     ~ W . 1 @   . ' [ 1 1 E ~ ].|.]. X X].).' ^ }.` < ; < ~ [ ).@ @ 1 @ 1 o 8 8 0 q j x x t.s d d y.tX",
"tXi.d d z v x v a.z a 0 * o . ~ ;   < @   < [ ~ < E W ^ ].|.}..XoX}.'.[ '.'.E 1 : < E ~ '   @ < + 1 O 8 0 q s t.t.t.x a d d i.tX",
"tXtXa d z z z x v z a 0 7 = W ' +   1 + ; ^ ' E 1 W ^ ' '.|..XOXOX X}.'. X' W 1 : 1 1 E W   @ E . + * 0 0 a z t.t.t.z a a d tXtX",
"tXtXj a a a z v v x G m U B | E   @ 1 < ' ` E E W ^ [ _.]..X#X:X&X+X X XoX).^ W 1 < 1 ` 1   < W X p K U f G c x x z a a a s tXtX",
"tXtXz j a a a z t.:.6X2.8.0X4.2 . E ' < 1 1 E W ^ [ _.}..X+X-X>X;X*X+X.XOX+X).^ W 1 W [ E ; ` # * <.wX0.2.6X:.t.z a d a j z tXtX",
"tXtXtXs z j a a v J 1.>.7.7X0.] [ }.).< < E W ^ [ '.}..X@X*X;X1X1X;X*X@XoX*X.X{ ` W 1 ' ).' ~ O 9 8.8X7.&.9.J v s a s j s tXtXtX",
"tXtXtXs j j j a z x j i A >.V - | |.~ < 1 W ~ ' _.}..XOX*X-X>X2X2X>X-X*X+X*X+X_.[ ~ E W ].'.$ 7 q G <.A u z v z a s j s s tXtXtX",
"tXtXtXx j d a a a x v z a r q 8 9 ( E : 1 E ~ ` { '. XoX&X:X1X2X1X<X-X@X@X*X X{ ` W E < ' | 9 q s j j z a.x z a a q s z z tXtXtX",
"tXtXtXj s q 0 q j v v p.c j a 0 8 9 $ ; < 1 W ^ [ ).}. X@X;X1X1X>X-X*XOX&X*X}.[ ` ' ^ E ^ 4 8 a j z z z t.x x j t t r j j tXtXtX",
"tXtXtXtXa q t a v c a j x t.z a 0 7 & . ; < 1 W ^ [ _.].#X<X;X;X;X*XOX.X.XOX X).{ '.[ / 4 8 q a z y.s.x z a z v a r r r tXtXtXtX",
"tXtXtXtXa s s j z s a r s j s a 0 0 8 & . ; : < W ^ [ ).OX=XOX&X*XOX X].).}.oX$X%XE 2 4 8 0 q a s z v z a r a z j s s a tXtXtXtX",
"tXtXtXtXa q d a j x s a z G G i f w t q 7 X > _ _ 3 ~ ).|.}. XOXOX X].).{ ]. .XXXX4 * 0 q 0 w f r a z x s r j s a r r a tXtXtXtX",
"tXtXtXtX0 8 0 q a j t a a.H V r d t t z j 9 Z 4Xe.O.5 '.|.).'.|.|.].).} ]. .T e.4XA a s z q w a r q s a.a 0 z a r 0 0 0 tXtXtXtX",
"tXtXtXtX8 t 0 t q a 0 a v p.x s S A u a z s >.0X8X7.Y 3 ' ' ).'.'.{ [ {  .) 7.9X8X;.j j a u A S s z t.v r 0 a q t 9 8 8 tXtXtXtX",
"tXtXtXtX8 t h tX0 q 0 e s v t.s.J -.,.-.V a -.4X8X3X=.C Z 4...] / ..4.X.C @.XXwX4X;.a D -.,.-.J a.p.v s r t q e tXr 8 7 tXtXtXtX",
"tXtXtXtXtXe t q 8 t a z x x x a.a.v H ;.1.F G 7.5X3X$.i T 5X8XS S 8X5XT i %.P.5X7.S F 1.-.H x d.a.c x x z a e 8 t 0 7 tXtXtXtXtX",
"tXtXtXtXtXtXt 8 0 h c t.a.p.x c p.t.t.v c s r S >.>.V a G 0.0.I I 0.0.F d V >.<.S r j F v t.p.t.x x t.a.t.c h 8 8 7 tXtXtXtXtXtX",
"tXtXtXtXtXtXtX8 D <.0.P t.a.p.z j p.d.f.t.x a 8 8 0 d z z k c v t.c j x z a e 8 8 a v a.d.d.p.j z t.a.t.P 0.8.tXtXtXtXtXtXtXtXtX",
"tXtXtXtXtXtXtXtX0.8XwX8.k t.a.z x t.x x t.t.v a t a z t.t.v t.p.t.t.t.t.v z a t a v y.x x x t.x z a.t.l 8.wX0XtXtXtXtXtXtXtXtXtX",
"tXtXtXtXtXtXtXtXq.P.e.*.u v v s v z a w a s z v x v t.z z s z z j z j j x v x x v x j a r a z x s t.t.i %.w.5XtXtXtXtXtXtXtXtXtX",
"tXtXtXtXtXtXtXtX5.8.5.tXh j a t s s 0 8 t q 0 a v v x j a q 0 0 r 0 r a j x t.v r 0 t 0 8 0 s j 0 a z h @.6.8.tXtXtXtXtXtXtXtXtX",
"tXtXtXtXtXtXtXtXtXtXtXtXtXtXtXtXtXj r 0 e t t 8 q z j 0 8 8 q a a t 8 8 0 j z e 8 e t e 0 a j tXtXtXtXtXtXtXtXtXtXtXtXtXtXtXtXtX",
"tXtXtXtXtXtXtXtXtXtXtXtXtXtXtXtXtXtXtXtX8 e a j j r 9 7 7 tXj r r j tX7 7 0 a s j a t 8 tXtXtXtXtXtXtXtXtXtXtXtXtXtXtXtXtXtXtXtX",
"tXtXtXtXtXtXtXtXtXtXtXtXtXtXtXtXtXtXtXtXtXtX8 0 0 8 8 7 0 a r 8 8 r a 0 7 7 8 e 0 8 tXtXtXtXtXtXtXtXtXtXtXtXtXtXtXtXtXtXtXtXtXtX",
"tXtXtXtXtXtXtXtXtXtXtXtXtXtXtXtXtXtXtXtXtXtXtXtXtXtXtX8 8 9 7 tXtX9 8 7 8 tXtXtXtXtXtXtXtXtXtXtXtXtXtXtXtXtXtXtXtXtXtXtXtXtXtXtX"
};
