/* XPM */
static char *_798_5bc88e2860b0b403a9c527d40fa41d0b2b414aa6da32973c93d4f96001247f0c[] = {
/* columns rows colors chars-per-pixel */
"64 64 215 2 ",
"   c #130119",
".  c #18191D",
"X  c #140B0F",
"o  c #360306",
"O  c #380317",
"+  c #291D1C",
"@  c #3A1716",
"#  c #2D0100",
"$  c #3D2615",
"%  c #3D260D",
"&  c #171729",
"*  c #1A1A37",
"=  c #0A003F",
"-  c #35083A",
";  c #2E0A27",
":  c #1F2120",
">  c #232323",
",  c #2D2A28",
"<  c #34302C",
"1  c #460101",
"2  c #4C0201",
"3  c #4E070A",
"4  c #540504",
"5  c #5A0606",
"6  c #540906",
"7  c #5A0806",
"8  c #550A09",
"9  c #5D0909",
"0  c #5D0708",
"q  c #5D1203",
"w  c #58140D",
"e  c #4D1612",
"r  c #5E1D1D",
"t  c #571614",
"y  c #4F0B12",
"u  c #630B0B",
"i  c #6A0E0E",
"p  c #610A07",
"a  c #641403",
"s  c #6B120E",
"d  c #66160B",
"f  c #71190E",
"g  c #620F10",
"h  c #631212",
"j  c #6D1111",
"k  c #641C1B",
"l  c #691E1E",
"z  c #6D1A16",
"x  c #731414",
"c  c #781717",
"v  c #751C1C",
"b  c #7C1A1A",
"n  c #721A17",
"m  c #452718",
"M  c #512618",
"N  c #543011",
"B  c #783C19",
"V  c #6E2D12",
"C  c #4C0B28",
"Z  c #5E2424",
"A  c #572928",
"S  c #453224",
"D  c #563620",
"F  c #433B3C",
"G  c #533131",
"H  c #5C3C3C",
"J  c #5A3535",
"K  c #6C2424",
"L  c #662728",
"P  c #732424",
"I  c #75292A",
"U  c #782926",
"Y  c #693622",
"T  c #633332",
"R  c #623D3B",
"E  c #6B3C3C",
"W  c #6B3535",
"Q  c #733433",
"!  c #783232",
"~  c #733B3B",
"^  c #7B3A26",
"/  c #1E4C1A",
"(  c #2C4217",
")  c #644238",
"_  c #704C34",
"`  c #6B6921",
"'  c #03024D",
"]  c #0C0049",
"[  c #070445",
"{  c #191645",
"}  c #000053",
"|  c #020259",
" . c #0C0759",
".. c #171759",
"X. c #100040",
"o. c #2F0E4B",
"O. c #363556",
"+. c #2F2D4B",
"@. c #010164",
"#. c #00006B",
"$. c #0E066A",
"%. c #181765",
"&. c #000071",
"*. c #08067C",
"=. c #16006B",
"-. c #26046B",
";. c #2A2A61",
":. c #3C3C67",
">. c #2C2C72",
",. c #55274D",
"<. c #543050",
"1. c #433371",
"2. c #444443",
"3. c #4B4945",
"4. c #4C4C4C",
"5. c #45444A",
"6. c #5B4343",
"7. c #544949",
"8. c #52514D",
"9. c #464658",
"0. c #545353",
"q. c #5A5555",
"w. c #5C5C5C",
"e. c #6C4646",
"r. c #664A4A",
"t. c #674848",
"y. c #724545",
"u. c #7D4141",
"i. c #714F4F",
"p. c #685655",
"a. c #735151",
"s. c #715A5A",
"d. c #795959",
"f. c #6F5145",
"g. c #6C655D",
"h. c #64635D",
"j. c #555273",
"k. c #5F6161",
"l. c #636363",
"z. c #6C6C6C",
"x. c #6B6765",
"c. c #716B6A",
"v. c #766464",
"b. c #6C6D76",
"n. c #6F7070",
"m. c #747474",
"M. c #787876",
"N. c #7D7C7C",
"B. c #777275",
"V. c #821D1D",
"C. c #86221E",
"Z. c #852121",
"A. c #8B2525",
"S. c #8E2929",
"D. c #832B2B",
"F. c #922C2C",
"G. c #963030",
"H. c #9B3434",
"J. c #9E3939",
"K. c #A33C3C",
"L. c #A13738",
"P. c #984E1D",
"I. c #874E34",
"U. c #845959",
"Y. c #845F4A",
"T. c #A64242",
"R. c #AB4444",
"E. c #AF4848",
"W. c #B24C4C",
"Q. c #B65151",
"!. c #B95454",
"~. c #BE5959",
"^. c #836047",
"/. c #847575",
"(. c #827D7B",
"). c #916565",
"_. c #C15C5C",
"`. c #C56262",
"'. c #CA6969",
"]. c #D47575",
"[. c #C3982E",
"{. c #80807F",
"}. c #00008A",
"|. c #070487",
" X c #1A1987",
".X c #00009D",
"XX c #040494",
"oX c #131398",
"OX c #270583",
"+X c #272694",
"@X c #2B2B88",
"#X c #0000A2",
"$X c #0000AC",
"%X c #0000B4",
"&X c #0000BA",
"*X c #1818A9",
"=X c #515184",
"-X c #7F7F80",
";X c #0101C3",
":X c #0000CB",
">X c #848484",
",X c #8C8C8C",
"<X c #878887",
"1X c #91908D",
"2X c #939393",
"3X c #9A9B9B",
"4X c #9A9996",
"5X c #938F8D",
"6X c #A29D9B",
"7X c #A1A29F",
"8X c #A4A4A4",
"9X c gray68",
"0X c #B8B7B7",
"qX c #C8C8C8",
"wX c None",
/* pixels */
"wXwXwXwXwXl.wXwXwXwXwXwXwXwXwXwXwXwXw.wXwXwXwXwXwXwXwXwXwXwXwXwXwXwXwXwXwXwXwXwXwXwXwXwXwXw.wXwXwXwXwXwXwXwXwXwXwXwXl.wXwXwXwXwX",
"wXwXwXwXwXl.l.wXwXwXwXwXwXwXwXwXwXwXl.wXwXwXwXwXwXwXwXwXwXwXwXwXwXwXwXwXwXwXwXwXwXwXwXwXwXl.wXwXwXwXwXwXwXwXwXwXwXl.l.wXwXwXwXwX",
"wXwXwXwXwXz.z.wXwXwXwXwXwXwXwXwXwXl.m.wXwXwXwXwXwXwXwXwXwXwXwXwXwXwXwXwXwXwXwXwXwXwXwXwXwXm.l.wXwXwXwXwXwXwXwXwXwXz.x.wXwXwXwXwX",
"wXwXwXwXwXp.z.m.wXwXwXwXwXwXwXwXl.m.>XwXwXwXwXwXwXwXwXwXwXwXwXwXwXwXwXwXwXwXwXwXwXwXwXwXwX>Xm.l.wXwXwXwXwXwXwXwXm.z.k.wXwXwXwXwX",
"wXwXwXwXwXwXl.m.wXwXwXwXwXwXwXwXn.N.2XwXwXwXwXwXwXwXwXwXwXwXwXwXwXwXwXwXwXwXwXwXwXwXwXwXwX2XN.n.wXwXwXwXwXwXwXwXm.l.wXwXwXwXwXwX",
"wXwXwXwXwXwXw.z.N.wXwXwXwXwXwXwXz.>X7X,XwXwXwXwXwXwXwXwXwXwXwXwXwXwXwXwXwXwXwXwXwXwXwXwX,X7X>Xz.wXwXwXwXwXwXwXN.z.w.wXwXwXwXwXwX",
"wXwXwXwXwXwXq.l.m.>XwXwXwXwXwXwXl.N.8X2XwXwXwXwXwXwXwXwXwXwXwXwXwXwXwXwXwXwXwXwXwXwXwXwX2X8X{.l.wXwXwXwXwXwX>Xm.l.q.wXwXwXwXwXwX",
"wXwXwXwXwXwXwXw.z.N.<XwXwXwXwXwXq.m.4X3X{.wXwXwXwXwXwXwXwXwXwXwXwXwXwXwXwXwXwXwXwXwXwX-X4X4Xn.q.wXwXwXwXwX>XN.z.w.wXwXwXwXwXwXwX",
"wXwXwXwXwXwXwX0.w.m.-X<X>XwXwXwX3.w.<X4X1XwXwXwXwXwXwXwXj x V.A.A.V.x j wXwXwXwXwXwXwX,X3X<Xk.4.wXwXwX>X<X>Xm.h.0.wXwXwXwXwXwXwX",
"wXwXwXwXwXwXwXwX4.k.M.>X,X<XwXwX<.3.h.{./.v.wXwXwXwXj x x x V.A.Z.V.b x x j wXwXwXwXv./.(.g.3.2.wXwX<X,X>Xm.k.4.wXwXwXwXwXwXwXwX",
"wXwXwXwXwXwXwXwX2.0.l.N.>X2X2X,X4.S M t h j j s u j b b c b A.G.G.A.b x V.b i i i j z i t M S 4.,X2X2X<XN.l.0.2.wXwXwXwXwXwXwXwX",
"wXwXwXwXwXwXwXwXwX4.q.l.m.,X3X3X5Xd.M p s x b b j x V.Z.V.V.S.L.J.F.V.V.Z.b x j b b x i 5 r d.2X3X3X<XM.l.0.4.wXwXwXwXwXwXwXwXwX",
"wXwXwXwXwXwXwXwXwXwX4.w.z.m.,X8X9X0X6XU.x j c V.c j c Z.Z.V.Z.G.F.A.b A.A.b x x V.b i x U.6X0X9X8X,XN.x.w.4.wXwXwXwXwXwXwXwXwXwX",
">X>XwXwXwXwXwXwXwXwX2.4.w.z.M.2X8XqXqXqX).u i c b x i x V.c b Z.Z.b b b x i x b c j u ).qXqX0X9X2Xm.l.k.4.2.wXwXwXwXwXwXwXwX>X>X",
"wXN.>XN.m.wXwXwXwXwXwXG 8.k.z.m.>X3X9XqX0X! x c x c i i j x j c x j x x i i c x b x ! 0XqX9X6X>Xb.z.l.8.G wXwXwXwXwXwXm.N.>XN.wX",
"wXwXN.>X,X<XN.wXwXj x g A 8.l.z.c.B.>X4X8X~ V.b i i u u x c j i j x c j p u i i b b u.7X2X>XB.z.z.l.0.A i x x wXwXN.>X,X>XM.wXwX",
"wXwXwXz.N.4X2X,XB.y.P j u A 0.l.z.z.z.M.{.Q V.b i u u i i c V.i i V.c i i u i i b V.Q (.B.n.z.z.l.0.A u x K y.B.,X4X2X-Xz.wXwXwX",
"wXwXwXwXl.c.<X3X4X<Xc.~ j i Z 6.q.k.l.x.s.P c x j x c x i i c x x c i j x c x j j b P s.z.l.k.q.6.Z u z ~ z.<X2X3X>Xn.l.wXwXwXwX",
"wXwXwXwXwX0.w.m.<X,X-Xh.U i u j L H <.E v c x u i b b c x u i i i i u i x c c i i x c P E <.J L z u i U s.-X5X<Xm.k.8.wXwXwXwXwX",
"wXwXwXwXwXwXJ 8.k.b.z.i.Z.u 5 u i h f s j j i u i c c x u 5 5 p p 5 5 i c c c i i u s s s f i i u 5 9 Z.i.b.z.k.8.J wXwXwXwXwXwX",
"wXwXwXwXwXj x Z G H E D.b i 0 5 0 0 p p p i j x b b c j u 5 2 4 4 2 5 u j x V.V.x i i u u 0 p 0 5 0 j b D.~ H G L x i wXwXwXwXwX",
"wXwXwXwXu i b b j i i x j x x p p 0 0 u i j j b Z.Z.Z.V.i p 5 2 2 5 u i V.Z.V.V.c x i i u 0 5 p 9 j x j j i u j b b i p wXwXwXwX",
"wXwXwXwXi u x b j u 9 0 i i j x x u 5 0 0 p i j x b V.V.b i 0 5 5 p u V.V.V.V.c j i u p p 5 u x x j i u 0 u u j b j u i wXwXwXwX",
"wXwXwXi x x u u 0 i j i x i p c x u u i i u u p u j x c b i 0 0 5 5 j V.c x i u p u u u i u p c b u i x i j i 0 p i x x j wXwXwX",
"wXwXwXu j x u 0 i u j b Z.b j b c j j c Z.Z.c i 0 u x x c x j p 5 i c V.c j p 0 i c Z.V.c x j b b i b A.b i u i 9 u x i u wXwXwX",
"wXwXq 4 4 0 p j b i i x c x c Z.S.V.V.V.A.S.A.x 5 5 j x b c x u u x c c x u 4 5 x Z.F.A.V.b V.A.Z.b j x x i u V.j p 0 4 4 q wXwX",
"wXwXq 2 2 2 4 p i 5 0 p j b A.G.G.V.x c Z.F.S.V.u 5 0 u j i s p u i j j u 0 0 u b F.F.Z.b x Z.H.G.S.V.j u p 5 i u 4 4 1 2 7 wXwX",
"wXwX8 2 2 2 2 4 5 4 u x Z.L.K.T.K.H.V.c Z.S.S.b x i 5 0 p p 5 4 4 5 0 5 0 4 i x V.A.F.Z.x V.J.K.E.K.F.b i 0 4 5 4 2 2 1 2 8 wXwX",
"wXwXi 9 4 2 1 2 2 8 V.F.R.W.Q.Q.E.T.F.V.c c c x j i 0 y m % N B B N % % 8 0 i j x b V.c b F.K.E.Q.W.K.G.V.c 5 2 2 1 1 4 9 h wXwX",
"wXb Z.x u 4 2 2 2 u A.K.W.W.E.Q._.E.L.F.Z.c j x x b x w ( / ` [.[.` / ( w j b b x c V.Z.F.L.W.E.R.W.W.L.F.V.u 2 1 1 4 u c C.b wX",
"x b b x i 5 2 1 1 0 V.J.R.J.K.R._._._.Q.K.F.V.V.A.G.G.S.Y N ^ P.P.B D U Z.A.A.A.A.C.G.R.Q._._.Q.K.L.R.H.C.V 0 1 1 2 4 i x b b x ",
"j b c j p u u 4 1 2 i A.S.A.H.T.R._._._.Q.H.V.A.H.R.E.W.E.L.F.V.V.F.L.E.E.L.H.G.G.G.K.Q.`.`.~.E.J.A.S.A.f a 2 1 1 1 4 p j x c x ",
"i j j u j Z.Z.n e M a s x b S.J.K.E.W.W.L.A.F.L.E.Q.W.~.`.Q.K.S.A.L.Q.`.~.Q.E.T.H.F.G.R.W.W.E.L.S.b x i a a M e 1 2 4 5 u i j j ",
"p i 0 j A.H.F.b N h.f.z u s b F.L.T.K.H.F.H.K.W.~.`.~.`.].'.W.E.E.W.'.].`.~.`.~.E.J.A.F.J.L.H.Z.c u 5 w _ s.g.m 2 4 p 8 4 p u u ",
"3 4 8 b G.L.A.g m l.(.a.h u u V.F.H.S.Z.C.F.J.E.~.'.`.`.'.].Q.E.W.Q.].'.~.'.`.~.E.L.A.V.A.b j 0 6 4 8 r.b.z.l.$ 1 6 u p 4 4 5 4 ",
"q 4 9 Z.S.Z.i @ . 5.m.<Xi.g 5 p i j j i i c C.S.K.Q.~.~.Q.'.T.T.T.T.'.!.~.~.Q.T.F.b x x i p 4 4 2 8 r.,Xz.4.2.+ 1 2 7 7 4 1 1 q ",
"q 2 5 s x 5 3 + : & +.m.M.6.m R J 4 4 4 6 s x x b S.T.J.K.W.J.G.G.L.W.K.K.T.S.b c c j u p w J H e 7.M.b.O.< + o 2 1 2 2 1 1 2 a ",
"4 2 4 p 7 5 8 + : . ' ..;.;.{ b.N.L r 3 4 7 x V.Z.V.V.Z.A.F.F.S.A.S.G.A.Z.b Z.C.V.c x A K I N.b.* ;.;...[ X # 2 2 2 2 1 1 1 2 2 ",
"5 4 5 p p u A q., : & } } } ' 9.M.p.z.1.y 6 p f ! y.D.Z.b b Z.S.A.A.c c V.! ~ I c s C j.B.p.m.9.' } } } [ o 2 w y.Z 5 4 4 4 4 5 ",
"0 p j x i d p.5X) > & * ' } ' +.<.9.B.+X- - -.-.<.m.v.U V.b A.J.L.A.b V.U v.N.1.OX-.|.@X=XO.0.+.} } } ] O 4 u ^ 5Xp.u p j i p 5 ",
"wXi i x i i i.z.Y @ > > * [ }  .#.$.>.XX|.#X#X.X:.N.l.,.,.U.d.U.U.d.U.,.,.l.M.@X;X&X$XoX|.&.%. .} } ' ; 7 i j Y z.i.i i x j u wX",
"wXu i i j b K A t a 3 @ , * | #.#.@.*..X#X%X%X#X%.4.5. X+Xl.k.b.M.k.l.+X X5.4. X;X;X&X#XXX}.#.#.| [ O w i s d w A K c j i u i wX",
"wXwXp u V.Z.V.x j Y V L 8.< [ #.#.#.&..X$X#X;X$XXX XoX:X:X>.:.z.b.9. X$X&XoX X&X:X&X&X$X#XXX#.@.] O w W Y V B j x V.Z.b p p wXwX",
"wXwX0 p x b V.V.I.{.g.c.7X_ @ X.| | &.}.%X%X;X$X#X;X:X:X%X$X&X*X*X;X;X&X;X:X:X;X;X;X&X.X#X}. .- 8 s I.7Xc.v.>Xu.V.V.b x p p wXwX",
"wXwXwXu p i x V.! /.h.x.4X^.8 1 ; X.}.#X;X;X;X#X&X:X:X&X#X&X:X:X:X:X:X&X;X:X:X&X&X&X%X#X*.- g x b z Y.4Xc.l./.! V.x i p u wXwXwX",
"wXwXwXi u p u c x h A q.c.W 7 a 4 O $..X%X;X&X#X&X;X&X#X$X:X:X:X:X:X:X&X&X:X:X:X&X&X%X|.C i x s f 7 W c.7.A r x b u 0 u wXwXwXwX",
"wXwXwXwXi i i x x 5 5 l I i x s 5 4 O ] }.&X$X$X&X%X#X.X&X&X&X&X;X&X&X&X&X&X&X&X&X%X#X=.2 5 4 4 f x s l g 0 0 x x i i u wXwXwXwX",
"wXwXwXwXu u i j x i i i i u i p 5 4 2 o   *.#X#X#X.X.X.X#X.X#X#X#X#X#X#X#X.X#X.X.X.X*.y 2 2 2 5 u i s 9 0 u i x j i i i wXwXwXwX",
"wXwXwXwXp 8 0 u i x j x i W k p a 7 5 p 3   ..=X=X*.}.|.}.}.}.}.}.}.}.}.}.}.*.=X=Xo.y 7 u 9 6 a 5 k ~ v j i v i u 0 5 p wXwXwXwX",
"wXwXwXp 4 2 4 5 p x i j j n h p p 5 5 x s 4 H 7X,X9.%.&.#.#.&.#.&.&.&.&.#.%.9.,X7XH 5 j x 7 7 p p 9 I A.9 5 j u 5 4 3 4 5 wXwXwX",
"wXwXwX5 4 1 wX4 0 u 0 u c V.V.i L k 9 p x s i.2X1Xz.< ....1.;.' | ;.:...{ F z.2X4Xi.j j p p k L j c Z.b 9 4 p 5 4 wX1 4 5 wXwXwX",
"wXwXwX8 8 j wXwX4 5 4 8 u b V.A.P e.a.L u 0 t.>X4X{.0.S 3.B.b.O.+.b.m.3.S 8.N.4X>Xr.u 9 K a.e.P A.V.b j 5 8 5 4 wXwXh 5 6 wXwXwX",
"wXwXwXwX8 i x u 4 0 g n c x c A.A.v Q e.s.K T n.,X>Xq.t ) ,X4XR ) 4X,XR r 0.{.,Xn.T K a.e.W c A.A.x x x x i 4 4 u x i 8 wXwXwXwX",
"wXwXwXwXwX6 4 4 2 h E y.P V.c b A.Z.c b P j w H z.x.J p J N.>XW Q >XM.T p J x.z.6.w j I b V.Z.Z.v c V.P e.E k 2 4 4 8 wXwXwXwXwX",
"wXwXwXwXwXwXwXwXwXa.<X8Xs.x V.x j Z.S.S.Z.x 0 3 e y p s j l K b v K l j i u y e 3 0 x C.F.A.V.x x V.z s.8X>Xi.wXwXwXwXwXwXwXwXwX",
"wXwXwXwXwXwXwXwXwXN.,X,Xk.r V.x x Z.Z.Z.V.Z.x 8 2 5 x b Z.b b V.Z.b V.Z.b s 5 4 8 j V.C.Z.Z.V.x x V.k k.2X2XB.wXwXwXwXwXwXwXwXwX",
"wXwXwXwXwXwXwXwXwXb.m.l.0.r c j b b i u j c b c i x b C.V.V.c x j c V.Z.Z.b j i c b b x u i b b j b r 8.x.m.z.wXwXwXwXwXwXwXwXwX",
"wXwXwXwXwXwXwXwXwXq.w.4.F k j p x j 5 4 5 p u c V.V.b x j u 0 8 0 p u j x b V.Z.c u 0 8 4 5 j x u i k F 4.w.q.wXwXwXwXwXwXwXwXwX",
"wXwXwXwXwXwXwXwXwX4.0.wXwX8 2 2 i j 5 2 4 4 4 8 j b x h 0 5 4 4 5 4 4 0 j x b j 8 4 2 8 2 5 i i 2 2 8 wXwX0.4.wXwXwXwXwXwXwXwXwX",
"wXwXwXwXwXwXwXwXwXwXwXwXwXwXwXwXwXj u 4 4 2 wX2 5 p wX4 4 2 3 9 u 2 1 4 8 wXu 4 2 wX2 4 4 u j wXwXwXwXwXwXwXwXwXwXwXwXwXwXwXwXwX",
"wXwXwXwXwXwXwXwXwXwXwXwXwXwXwXwXwXwXi 8 8 8 wXwX4 5 4 4 2 wX9 j x 9 wX2 2 8 4 4 wXwX8 8 8 i wXwXwXwXwXwXwXwXwXwXwXwXwXwXwXwXwXwX",
"wXwXwXwXwXwXwXwXwXwXwXwXwXwXwXwXwXwXwXwX2 6 0 i j 8 2 1 1 wXz i g z wX1 1 2 5 j j 9 8 1 wXwXwXwXwXwXwXwXwXwXwXwXwXwXwXwXwXwXwXwX",
"wXwXwXwXwXwXwXwXwXwXwXwXwXwXwXwXwXwXwXwXwXwX2 3 2 1 1 1 3 p 9 1 1 8 p 2 1 2 1 2 2 1 wXwXwXwXwXwXwXwXwXwXwXwXwXwXwXwXwXwXwXwXwXwX",
"wXwXwXwXwXwXwXwXwXwXwXwXwXwXwXwXwXwXwXwXwXwXwXwXwXwXwX1 1 2 1 wXwX2 2 2 1 wXwXwXwXwXwXwXwXwXwXwXwXwXwXwXwXwXwXwXwXwXwXwXwXwXwXwX"
};
